{
	"asset":{
		"generator":"Khronos glTF Blender I/O v4.4.56",
		"version":"2.0"
	},
	"scene":0,
	"scenes":[
		{
			"name":"Scene",
			"nodes":[
				0,
				1,
				2
			]
		}
	],
	"nodes":[
		{
			"mesh":0,
			"name":"Cube.001",
			"scale":[
				0.9489019513130188,
				0.9489019513130188,
				0.9489019513130188
			],
			"translation":[
				0.011988833546638489,
				0.007313750684261322,
				0.0028571737930178642
			]
		},
		{
			"mesh":1,
			"name":"Cube.002",
			"scale":[
				0.9489019513130188,
				0.9489019513130188,
				0.9489019513130188
			],
			"translation":[
				0.011988833546638489,
				0.007313750684261322,
				0.0028571737930178642
			]
		},
		{
			"mesh":2,
			"name":"Curve.003",
			"rotation":[
				0.7071069478988647,
				0,
				0,
				0.7071066498756409
			],
			"scale":[
				15,
				15.000001907348633,
				15.000001907348633
			],
			"translation":[
				-1.3557074069976807,
				-1.4012008905410767,
				0
			]
		}
	],
	"materials":[
		{
			"doubleSided":true,
			"name":"SVGMat.002",
			"pbrMetallicRoughness":{
				"baseColorFactor":[
					0.024375883862376213,
					0.015570199117064476,
					0.08715897053480148,
					1
				],
				"metallicFactor":0,
				"roughnessFactor":0.5
			}
		},
		{
			"doubleSided":true,
			"name":"SVGMat.005",
			"pbrMetallicRoughness":{
				"baseColorFactor":[
					0.5569561123847961,
					0.14491713047027588,
					0.7773342132568359,
					1
				],
				"metallicFactor":0,
				"roughnessFactor":0.5
			}
		}
	],
	"meshes":[
		{
			"name":"Cube.002",
			"primitives":[
				{
					"attributes":{
						"POSITION":0,
						"NORMAL":1,
						"TEXCOORD_0":2
					},
					"indices":3,
					"material":0
				}
			]
		},
		{
			"name":"Cube.001",
			"primitives":[
				{
					"attributes":{
						"POSITION":4,
						"NORMAL":5,
						"TEXCOORD_0":6
					},
					"indices":7,
					"material":1
				}
			]
		},
		{
			"name":"Curve.003",
			"primitives":[
				{
					"attributes":{
						"POSITION":8,
						"NORMAL":9,
						"TEXCOORD_0":10
					},
					"indices":11,
					"material":1
				}
			]
		}
	],
	"accessors":[
		{
			"bufferView":0,
			"componentType":5126,
			"count":563,
			"max":[
				1.1548444032669067,
				1.1548444032669067,
				0.27501916885375977
			],
			"min":[
				-1.1548444032669067,
				-1.1548444032669067,
				-0.27501916885375977
			],
			"type":"VEC3"
		},
		{
			"bufferView":1,
			"componentType":5126,
			"count":563,
			"type":"VEC3"
		},
		{
			"bufferView":2,
			"componentType":5126,
			"count":563,
			"type":"VEC2"
		},
		{
			"bufferView":3,
			"componentType":5123,
			"count":3156,
			"type":"SCALAR"
		},
		{
			"bufferView":4,
			"componentType":5126,
			"count":1388,
			"max":[
				1.303880214691162,
				1.303880214691162,
				0.38990187644958496
			],
			"min":[
				-1.303880214691162,
				-1.303880214691162,
				-0.38990187644958496
			],
			"type":"VEC3"
		},
		{
			"bufferView":5,
			"componentType":5126,
			"count":1388,
			"type":"VEC3"
		},
		{
			"bufferView":6,
			"componentType":5126,
			"count":1388,
			"type":"VEC2"
		},
		{
			"bufferView":7,
			"componentType":5123,
			"count":6336,
			"type":"SCALAR"
		},
		{
			"bufferView":8,
			"componentType":5126,
			"count":3354,
			"max":[
				0.1399461328983307,
				0.025499999523162842,
				-0.055059950798749924
			],
			"min":[
				0.04897273704409599,
				-0.025499999523162842,
				-0.13301806151866913
			],
			"type":"VEC3"
		},
		{
			"bufferView":9,
			"componentType":5126,
			"count":3354,
			"type":"VEC3"
		},
		{
			"bufferView":10,
			"componentType":5126,
			"count":3354,
			"type":"VEC2"
		},
		{
			"bufferView":11,
			"componentType":5123,
			"count":17052,
			"type":"SCALAR"
		}
	],
	"bufferViews":[
		{
			"buffer":0,
			"byteLength":6756,
			"byteOffset":0,
			"target":34962
		},
		{
			"buffer":0,
			"byteLength":6756,
			"byteOffset":6756,
			"target":34962
		},
		{
			"buffer":0,
			"byteLength":4504,
			"byteOffset":13512,
			"target":34962
		},
		{
			"buffer":0,
			"byteLength":6312,
			"byteOffset":18016,
			"target":34963
		},
		{
			"buffer":0,
			"byteLength":16656,
			"byteOffset":24328,
			"target":34962
		},
		{
			"buffer":0,
			"byteLength":16656,
			"byteOffset":40984,
			"target":34962
		},
		{
			"buffer":0,
			"byteLength":11104,
			"byteOffset":57640,
			"target":34962
		},
		{
			"buffer":0,
			"byteLength":12672,
			"byteOffset":68744,
			"target":34963
		},
		{
			"buffer":0,
			"byteLength":40248,
			"byteOffset":81416,
			"target":34962
		},
		{
			"buffer":0,
			"byteLength":40248,
			"byteOffset":121664,
			"target":34962
		},
		{
			"buffer":0,
			"byteLength":26832,
			"byteOffset":161912,
			"target":34962
		},
		{
			"buffer":0,
			"byteLength":34104,
			"byteOffset":188744,
			"target":34963
		}
	],
	"buffers":[
		{
			"byteLength":222848,
			"uri":"Untitled.bin"
		}
	]
}
